<svg width="160" height="160" viewBox="0 0 160 160" fill="none" xmlns="http://www.w3.org/2000/svg" role="img" aria-labelledby="title desc">
  <title id="title">AIPass logo</title>
  <desc id="desc">A passport-inspired pass badge with a routed A monogram.</desc>
  <path d="M42 18H100L142 60V118C142 131.255 131.255 142 118 142H42C28.745 142 18 131.255 18 118V42C18 28.745 28.745 18 42 18Z" fill="#F8FAFC" stroke="#0F172A" stroke-width="6"/>
  <path d="M100 18V47C100 54.18 105.82 60 113 60H142" fill="#E2E8F0"/>
  <path d="M100 18V47C100 54.18 105.82 60 113 60H142" stroke="#0F172A" stroke-width="6" stroke-linejoin="round"/>
  <rect x="30" y="30" width="10" height="100" rx="5" fill="#0F172A"/>
  <path d="M54 40H86" stroke="#14B8A6" stroke-width="6" stroke-linecap="round"/>
  <circle cx="104" cy="40" r="7" fill="#14B8A6"/>
  <path d="M80 50L52 112H68L74 99H86L92 112H108L80 50Z" fill="#0F172A"/>
  <path d="M80 51V78" stroke="#14B8A6" stroke-width="8" stroke-linecap="round"/>
  <path d="M67 88H93" stroke="#14B8A6" stroke-width="10" stroke-linecap="round"/>
  <circle cx="67" cy="88" r="5" fill="#14B8A6"/>
  <circle cx="93" cy="88" r="5" fill="#14B8A6"/>
  <path d="M54 122H94" stroke="#94A3B8" stroke-width="5" stroke-linecap="round"/>
  <path d="M54 133H82" stroke="#CBD5E1" stroke-width="5" stroke-linecap="round"/>
</svg>
